<svg width="13" height="12" viewBox="0 0 13 12" fill="none" xmlns="http://www.w3.org/2000/svg">
<path d="M12.2672 0.792614L6.8134 11.7017C6.71682 11.9006 6.55491 12 6.32767 12C6.29927 12 6.25666 11.9943 6.19985 11.983C6.07487 11.9545 5.97403 11.8906 5.89733 11.7912C5.82064 11.6918 5.78229 11.5795 5.78229 11.4545V6.54545H0.873876C0.748893 6.54545 0.636693 6.5071 0.537274 6.4304C0.437856 6.35369 0.373945 6.25284 0.345539 6.12784C0.317134 6.00284 0.328496 5.88352 0.379626 5.76989C0.430755 5.65625 0.51313 5.57102 0.626751 5.5142L11.5343 0.0596591C11.6082 0.0198864 11.6906 0 11.7815 0C11.9349 0 12.0627 0.0539773 12.1649 0.161932C12.2502 0.241477 12.3027 0.339489 12.3226 0.455966C12.3425 0.572443 12.324 0.684659 12.2672 0.792614Z" fill="url(#paint0_linear)"/>
<path d="M12.2672 0.792614L6.8134 11.7017C6.71682 11.9006 6.55491 12 6.32767 12C6.29927 12 6.25666 11.9943 6.19985 11.983C6.07487 11.9545 5.97403 11.8906 5.89733 11.7912C5.82064 11.6918 5.78229 11.5795 5.78229 11.4545V6.54545H0.873876C0.748893 6.54545 0.636693 6.5071 0.537274 6.4304C0.437856 6.35369 0.373945 6.25284 0.345539 6.12784C0.317134 6.00284 0.328496 5.88352 0.379626 5.76989C0.430755 5.65625 0.51313 5.57102 0.626751 5.5142L11.5343 0.0596591C11.6082 0.0198864 11.6906 0 11.7815 0C11.9349 0 12.0627 0.0539773 12.1649 0.161932C12.2502 0.241477 12.3027 0.339489 12.3226 0.455966C12.3425 0.572443 12.324 0.684659 12.2672 0.792614Z" fill="#309CFF"/>
<defs>
<linearGradient id="paint0_linear" x1="6.33032" y1="0" x2="6.33032" y2="12" gradientUnits="userSpaceOnUse">
<stop stop-color="#B6E5FF"/>
<stop offset="1" stop-color="#6FCBFF"/>
</linearGradient>
</defs>
</svg>
