<svg width="101" height="24" viewBox="0 0 101 24" fill="none" xmlns="http://www.w3.org/2000/svg">
<path d="M68.3235 4.96794e-09C66.5483 -5.82074e-05 64.81 0.511468 63.3127 1.4745C61.8153 2.43753 60.6212 3.81207 59.8706 5.43667L55.5797 14.7367C55.1275 15.7118 54.4095 16.5366 53.5099 17.1146C52.6103 17.6925 51.5662 17.9997 50.5 18V6C50.5 4.4087 49.8741 2.88258 48.7599 1.75736C47.6457 0.632141 46.1345 4.96795e-09 44.5588 4.96794e-09V18C44.5588 19.5913 45.1848 21.1174 46.299 22.2426C47.4131 23.3679 48.9243 24 50.5 24C52.2752 24.0001 54.0135 23.4885 55.5109 22.5255C57.0082 21.5625 58.2023 20.1879 58.953 18.5633L63.2438 9.26333C63.696 8.28819 64.414 7.46335 65.3136 6.88541C66.2132 6.30746 67.2573 6.00034 68.3235 6V18C68.3235 19.5913 68.9495 21.1174 70.0637 22.2426C71.1778 23.3679 72.689 24 74.2647 24V6C74.2647 4.4087 73.6388 2.88258 72.5246 1.75736C71.4104 0.632141 69.8992 4.96795e-09 68.3235 4.96794e-09Z" fill="url(#paint0_linear)"/>
<path d="M68.3235 4.96794e-09C66.5483 -5.82074e-05 64.81 0.511468 63.3127 1.4745C61.8153 2.43753 60.6212 3.81207 59.8706 5.43667L55.5797 14.7367C55.1275 15.7118 54.4095 16.5366 53.5099 17.1146C52.6103 17.6925 51.5662 17.9997 50.5 18V6C50.5 4.4087 49.8741 2.88258 48.7599 1.75736C47.6457 0.632141 46.1345 4.96795e-09 44.5588 4.96794e-09V18C44.5588 19.5913 45.1848 21.1174 46.299 22.2426C47.4131 23.3679 48.9243 24 50.5 24C52.2752 24.0001 54.0135 23.4885 55.5109 22.5255C57.0082 21.5625 58.2023 20.1879 58.953 18.5633L63.2438 9.26333C63.696 8.28819 64.414 7.46335 65.3136 6.88541C66.2132 6.30746 67.2573 6.00034 68.3235 6V18C68.3235 19.5913 68.9495 21.1174 70.0637 22.2426C71.1778 23.3679 72.689 24 74.2647 24V6C74.2647 4.4087 73.6388 2.88258 72.5246 1.75736C71.4104 0.632141 69.8992 4.96795e-09 68.3235 4.96794e-09Z" fill="#309CFF"/>
<path d="M35.6471 1.49038e-08C33.8646 0.00291591 32.118 0.506367 30.6025 1.45409C29.087 2.40181 27.8623 3.75647 27.0654 5.36667L20.7941 18L14.5229 5.36667C13.7259 3.75647 12.5012 2.40181 10.9857 1.45409C9.47027 0.506367 7.72368 0.00291591 5.94118 1.49038e-08C4.36548 1.49038e-08 2.85432 0.632141 1.74013 1.75736C0.625944 2.88258 0 4.4087 0 6V24C1.5757 24 3.08686 23.3679 4.20105 22.2426C5.31523 21.1174 5.94118 19.5913 5.94118 18V6C6.83251 6.00108 7.70596 6.25264 8.46377 6.72655C9.22157 7.20045 9.83384 7.87799 10.232 8.68333L16.5033 21.35C16.8959 22.1474 17.5013 22.8181 18.2514 23.2863C19.0014 23.7546 19.8661 24.0018 20.7479 24C21.6492 24.0006 22.5319 23.7412 23.292 23.2522C24.0522 22.7632 24.6582 22.0651 25.0388 21.24L30.574 9.26333C31.0257 8.28922 31.7426 7.46506 32.641 6.88719C33.5393 6.30932 34.582 6.0016 35.6471 6V18C35.6471 19.5913 36.273 21.1174 37.3872 22.2426C38.5014 23.3679 40.0125 24 41.5882 24V6C41.5882 4.4087 40.9623 2.88258 39.8481 1.75736C38.7339 0.632141 37.2228 1.49038e-08 35.6471 1.49038e-08Z" fill="url(#paint1_linear)"/>
<path d="M35.6471 1.49038e-08C33.8646 0.00291591 32.118 0.506367 30.6025 1.45409C29.087 2.40181 27.8623 3.75647 27.0654 5.36667L20.7941 18L14.5229 5.36667C13.7259 3.75647 12.5012 2.40181 10.9857 1.45409C9.47027 0.506367 7.72368 0.00291591 5.94118 1.49038e-08C4.36548 1.49038e-08 2.85432 0.632141 1.74013 1.75736C0.625944 2.88258 0 4.4087 0 6V24C1.5757 24 3.08686 23.3679 4.20105 22.2426C5.31523 21.1174 5.94118 19.5913 5.94118 18V6C6.83251 6.00108 7.70596 6.25264 8.46377 6.72655C9.22157 7.20045 9.83384 7.87799 10.232 8.68333L16.5033 21.35C16.8959 22.1474 17.5013 22.8181 18.2514 23.2863C19.0014 23.7546 19.8661 24.0018 20.7479 24C21.6492 24.0006 22.5319 23.7412 23.292 23.2522C24.0522 22.7632 24.6582 22.0651 25.0388 21.24L30.574 9.26333C31.0257 8.28922 31.7426 7.46506 32.641 6.88719C33.5393 6.30932 34.582 6.0016 35.6471 6V18C35.6471 19.5913 36.273 21.1174 37.3872 22.2426C38.5014 23.3679 40.0125 24 41.5882 24V6C41.5882 4.4087 40.9623 2.88258 39.8481 1.75736C38.7339 0.632141 37.2228 1.49038e-08 35.6471 1.49038e-08Z" fill="#309CFF"/>
<path d="M95.0588 6V9C92.3161 9.0011 89.6155 8.31796 87.1971 7.0113C84.7786 5.70463 82.7173 3.81489 81.1961 1.51L80.2059 1.49038e-08H74.2647L77.0637 4.71C78.9283 7.84814 81.5658 10.4452 84.7193 12.2485C87.8728 14.0517 91.4349 14.9997 95.0588 15C95.0588 15.7956 94.7458 16.5587 94.1888 17.1213C93.6317 17.6839 92.8761 18 92.0882 18H83.1765C81.6008 18 80.0896 18.6321 78.9754 19.7574C77.8612 20.8826 77.2353 22.4087 77.2353 24H91.1641C93.7727 24 96.2745 22.9535 98.1191 21.0906C99.9637 19.2277 101 16.7012 101 14.0667V1.49038e-08C99.4243 1.49038e-08 97.9131 0.632141 96.799 1.75736C95.6848 2.88258 95.0588 4.4087 95.0588 6Z" fill="url(#paint2_linear)"/>
<path d="M95.0588 6V9C92.3161 9.0011 89.6155 8.31796 87.1971 7.0113C84.7786 5.70463 82.7173 3.81489 81.1961 1.51L80.2059 1.49038e-08H74.2647L77.0637 4.71C78.9283 7.84814 81.5658 10.4452 84.7193 12.2485C87.8728 14.0517 91.4349 14.9997 95.0588 15C95.0588 15.7956 94.7458 16.5587 94.1888 17.1213C93.6317 17.6839 92.8761 18 92.0882 18H83.1765C81.6008 18 80.0896 18.6321 78.9754 19.7574C77.8612 20.8826 77.2353 22.4087 77.2353 24H91.1641C93.7727 24 96.2745 22.9535 98.1191 21.0906C99.9637 19.2277 101 16.7012 101 14.0667V1.49038e-08C99.4243 1.49038e-08 97.9131 0.632141 96.799 1.75736C95.6848 2.88258 95.0588 4.4087 95.0588 6Z" fill="#309CFF"/>
<defs>
<linearGradient id="paint0_linear" x1="50.5" y1="0" x2="50.5" y2="24" gradientUnits="userSpaceOnUse">
<stop stop-color="#B6E5FF"/>
<stop offset="1" stop-color="#6FCBFF"/>
</linearGradient>
<linearGradient id="paint1_linear" x1="50.5" y1="0" x2="50.5" y2="24" gradientUnits="userSpaceOnUse">
<stop stop-color="#B6E5FF"/>
<stop offset="1" stop-color="#6FCBFF"/>
</linearGradient>
<linearGradient id="paint2_linear" x1="50.5" y1="0" x2="50.5" y2="24" gradientUnits="userSpaceOnUse">
<stop stop-color="#B6E5FF"/>
<stop offset="1" stop-color="#6FCBFF"/>
</linearGradient>
</defs>
</svg>
